<svg width="158" height="48" viewBox="0 0 158 48" fill="none" xmlns="http://www.w3.org/2000/svg">
<path fill-rule="evenodd" clip-rule="evenodd" d="M152.146 48H5.854C2.62762 48 0 45.2948 0 42V6C0 2.69327 2.62762 0 5.854 0H152.146C155.369 0 158 2.69327 158 6V42C158 45.2948 155.369 48 152.146 48Z" fill="black"/>
<path fill-rule="evenodd" clip-rule="evenodd" d="M152.146 0.960598C154.852 0.960598 157.067 3.22594 157.067 6V42C157.067 44.7741 154.867 47.0394 152.146 47.0394H5.854C3.14791 47.0394 0.933037 44.7741 0.933037 42V6C0.933037 3.22594 3.13337 0.960598 5.854 0.960598H152.146ZM152.146 0H5.854C2.62762 0 0 2.70524 0 6V42C0 45.3067 2.62762 48 5.854 48H152.146C155.369 48 158 45.3067 158 42V6C158 2.70524 155.369 0 152.146 0Z" fill="#212121"/>
<path d="M83.2345 15.878C82.1793 15.878 81.2899 15.498 80.5865 14.7498C79.8889 14.0227 79.4994 13.0202 79.5169 11.9967C79.5169 10.9045 79.8773 9.97977 80.5865 9.2466C81.287 8.49847 82.1764 8.11842 83.2316 8.11842C84.275 8.11842 85.1645 8.49847 85.8795 9.2466C86.5887 10.0037 86.9491 10.9284 86.9491 11.9967C86.9375 13.092 86.5771 14.0167 85.8795 14.7469C85.179 15.501 84.2896 15.878 83.2345 15.878ZM51.8398 15.878C50.808 15.878 49.9127 15.504 49.1803 14.7648C48.4536 14.0286 48.0845 13.098 48.0845 11.9997C48.0845 10.9015 48.4536 9.97079 49.1803 9.23463C49.8982 8.49548 50.7935 8.12142 51.8398 8.12142C52.3514 8.12142 52.8485 8.22615 53.3251 8.43862C53.7931 8.64511 54.1739 8.9264 54.4558 9.27054L54.5256 9.35733L53.7379 10.1533L53.6565 10.0546C53.2118 9.50995 52.6159 9.24361 51.8282 9.24361C51.1248 9.24361 50.5115 9.50097 50.0058 10.0097C49.4971 10.5214 49.2384 11.1917 49.2384 12.0027C49.2384 12.8137 49.4971 13.484 50.0058 13.9957C50.5115 14.5045 51.1248 14.7618 51.8282 14.7618C52.5781 14.7618 53.2089 14.5045 53.7001 13.9957C53.9908 13.6965 54.171 13.2775 54.2349 12.7479H51.7091V11.6286H55.3191L55.3336 11.7304C55.3598 11.9189 55.3859 12.1134 55.3859 12.293C55.3859 13.3254 55.0837 14.1603 54.4849 14.7768C53.8047 15.507 52.9153 15.878 51.8398 15.878ZM93.5821 15.7194H92.4688L89.0594 10.1025L89.0884 11.1139V15.7164H87.9752V8.28002H89.2454L89.2803 8.33688L92.4863 13.6277L92.4572 12.6192V8.28002H93.5821V15.7194ZM74.8692 15.7194H73.7414V9.39922H71.7852V8.28002H76.8224V9.39922H74.8662V15.7194H74.8692ZM70.8667 15.7194H69.7418V8.28002H70.8667V15.7194ZM64.5448 15.7194H63.4199V9.39922H61.4637V8.28002H66.5009V9.39922H64.5448V15.7194ZM60.7516 15.7075H56.4382V8.28002H60.7516V9.39922H57.5659V11.4401H60.4406V12.5474H57.5659V14.5882H60.7516V15.7075ZM81.412 13.9808C81.9148 14.4985 82.5252 14.7588 83.2345 14.7588C83.964 14.7588 84.5599 14.5045 85.0569 13.9808C85.5511 13.472 85.801 12.8047 85.801 11.9997C85.801 11.1947 85.551 10.5244 85.0598 10.0187C84.557 9.50097 83.9437 9.24062 83.2374 9.24062C82.5078 9.24062 81.9119 9.49498 81.4178 10.0187C80.9237 10.5274 80.6737 11.1947 80.6737 11.9997C80.6737 12.8047 80.9208 13.475 81.412 13.9808Z" fill="#FAFAFA"/>
<path fill-rule="evenodd" clip-rule="evenodd" d="M79.4129 26.1053C76.6661 26.1053 74.4396 28.251 74.4396 31.2106C74.4396 34.1432 76.6806 36.3158 79.4129 36.3158C82.1597 36.3158 84.3862 34.1552 84.3862 31.2106C84.3862 28.251 82.1597 26.1053 79.4129 26.1053ZM79.4129 34.2929C77.9102 34.2929 76.6167 33.0121 76.6167 31.1986C76.6167 29.3582 77.9131 28.1043 79.4129 28.1043C80.9156 28.1043 82.2091 29.3582 82.2091 31.1986C82.212 33.024 80.9156 34.2929 79.4129 34.2929ZM68.5623 26.1053C65.8155 26.1053 63.589 28.251 63.589 31.2106C63.589 34.1432 65.8301 36.3158 68.5623 36.3158C71.3091 36.3158 73.5356 34.1552 73.5356 31.2106C73.5356 28.251 71.3062 26.1053 68.5623 26.1053ZM68.5623 34.2929C67.0596 34.2929 65.7661 33.0121 65.7661 31.1986C65.7661 29.3582 67.0625 28.1043 68.5623 28.1043C70.0651 28.1043 71.3585 29.3582 71.3585 31.1986C71.3585 33.024 70.0651 34.2929 68.5623 34.2929ZM55.651 27.6644V29.825H60.6882C60.5341 31.037 60.1446 31.9318 59.5488 32.5452C58.8105 33.3053 57.6711 34.1313 55.6626 34.1313C52.567 34.1313 50.1457 31.5577 50.1457 28.3707C50.1457 25.1836 52.567 22.6101 55.6626 22.6101C57.3339 22.6101 58.5518 23.2894 59.4558 24.1572L60.944 22.625C59.6883 21.3861 58.017 20.4375 55.6742 20.4375C51.4276 20.4375 47.864 23.9986 47.864 28.3587C47.864 32.7308 51.4247 36.2799 55.6742 36.2799C57.9676 36.2799 59.6883 35.5078 61.0486 34.0535C62.4351 32.626 62.874 30.6121 62.874 28.9871C62.874 28.4814 62.8362 28.0265 62.7577 27.6405H55.648C55.651 27.6375 55.651 27.6644 55.651 27.6644ZM108.462 29.3462C108.046 28.2001 106.791 26.0934 104.215 26.0934C101.663 26.0934 99.5415 28.1612 99.5415 31.1986C99.5415 34.0654 101.64 36.3038 104.462 36.3038C106.73 36.3038 108.049 34.8764 108.593 34.0385L106.91 32.8774C106.352 33.7303 105.576 34.2899 104.474 34.2899C103.361 34.2899 102.582 33.7692 102.064 32.7427L108.695 29.9148C108.695 29.9178 108.462 29.3462 108.462 29.3462ZM101.701 31.052C101.649 29.0799 103.189 28.0774 104.291 28.0774C105.16 28.0774 105.884 28.5173 106.131 29.1577L101.701 31.052ZM96.3151 35.9986H98.4922V21.0001H96.3151V35.9986ZM92.7399 27.2395H92.6614C92.1702 26.638 91.2372 26.0934 90.0455 26.0934C87.5719 26.0934 85.2931 28.3348 85.2931 31.2136C85.2931 34.0804 87.5603 36.2949 90.0455 36.2949C91.2227 36.2949 92.1702 35.7472 92.6614 35.1338H92.7399V35.8669C92.7399 37.8151 91.7284 38.8654 90.0978 38.8654C88.7636 38.8654 87.9352 37.8779 87.598 37.052L85.7058 37.8659C86.2494 39.2126 87.6998 40.8794 90.0949 40.8794C92.6469 40.8794 94.8095 39.3323 94.8095 35.5587V26.3986H92.7516V27.2395C92.7545 27.2395 92.7399 27.2395 92.7399 27.2395ZM90.2402 34.2929C88.7375 34.2929 87.4818 33.0001 87.4818 31.2136C87.4818 29.4121 88.7375 28.1073 90.2402 28.1073C91.7284 28.1073 92.8824 29.427 92.8824 31.2136C92.8969 33.0001 91.7313 34.2929 90.2402 34.2929ZM118.656 21.0001H113.45V35.9986H115.627V30.3188H118.659C121.068 30.3188 123.437 28.5203 123.437 25.6654C123.437 22.8106 121.077 21.0001 118.656 21.0001ZM118.72 28.224H115.624V23.0769H118.72C120.35 23.0769 121.272 24.4624 121.272 25.6505C121.272 26.8265 120.339 28.224 118.72 28.224ZM132.163 26.0784C130.582 26.0784 128.951 26.7996 128.277 28.3707L130.207 29.1966C130.622 28.3707 131.384 28.0894 132.189 28.0894C133.317 28.0894 134.456 28.7836 134.482 30.0225V30.1811C134.093 29.9537 133.238 29.6066 132.215 29.6066C130.131 29.6066 128.018 30.7796 128.018 32.9791C128.018 34.9931 129.727 36.2859 131.631 36.2859C133.093 36.2859 133.898 35.6066 134.401 34.8195H134.48V35.9806H136.578V30.235C136.578 27.5597 134.648 26.0784 132.163 26.0784ZM131.89 34.2929C131.178 34.2929 130.181 33.9338 130.181 33.0121C130.181 31.851 131.425 31.4111 132.486 31.4111C133.445 31.4111 133.898 31.6235 134.468 31.9168C134.311 33.2634 133.206 34.2809 131.89 34.2929ZM144.234 26.3986L141.735 32.9043H141.656L139.066 26.3986H136.723L140.61 35.4929L138.395 40.5472H140.662L146.641 26.3986H144.234ZM124.638 35.9986H126.815V21.0001H124.638V35.9986Z" fill="#FAFAFA"/>
<path fill-rule="evenodd" clip-rule="evenodd" d="M12.1611 9.04132C11.8239 9.41539 11.6292 9.98696 11.6292 10.7351V37.2698C11.6292 38.0179 11.8239 38.5895 12.1727 38.9486L12.2628 39.0294L26.7031 24.1625V23.8304L12.2512 8.96053L12.1611 9.04132Z" fill="url(#paint0_linear_1787_2311)"/>
<path fill-rule="evenodd" clip-rule="evenodd" d="M31.5083 29.1311L26.6919 24.1725V23.8254L31.5083 18.8668L31.6129 18.9326L37.31 22.2663C38.9406 23.2119 38.9406 24.774 37.31 25.7316L31.6129 29.0653L31.5083 29.1311Z" fill="url(#paint1_linear_1787_2311)"/>
<path fill-rule="evenodd" clip-rule="evenodd" d="M31.6122 29.0663L26.6913 24L12.1609 38.9596C12.6928 39.5461 13.5852 39.612 14.5821 39.0404L31.6122 29.0663Z" fill="url(#paint2_linear_1787_2311)"/>
<path fill-rule="evenodd" clip-rule="evenodd" d="M31.6122 18.933L14.5821 8.97395C13.5852 8.38741 12.6899 8.46821 12.1609 9.05474L26.6913 23.9994L31.6122 18.933Z" fill="url(#paint3_linear_1787_2311)"/>
<path opacity="0.2" fill-rule="evenodd" clip-rule="evenodd" d="M31.508 28.9589L14.5941 38.8521C13.6494 39.4117 12.8065 39.3728 12.263 38.8641L12.1729 38.9569L12.263 39.0376C12.8065 39.5434 13.6494 39.5853 14.5941 39.0257L31.6243 29.0666L31.508 28.9589Z" fill="#FAFAFA"/>
<path opacity="0.12" fill-rule="evenodd" clip-rule="evenodd" d="M37.3091 25.5591L31.4929 28.9586L31.5976 29.0663L37.2946 25.7327C38.1114 25.2539 38.5125 24.6254 38.5125 24C38.4631 24.5746 38.0474 25.1192 37.3091 25.5591Z" fill="#FAFAFA"/>
<path opacity="0.25" fill-rule="evenodd" clip-rule="evenodd" d="M14.5823 9.14781L37.3095 22.4406C38.0478 22.8685 38.4634 23.4281 38.5274 23.9997C38.5274 23.3742 38.1262 22.7458 37.3095 22.267L14.5823 8.97424C12.9517 8.01365 11.6292 8.81564 11.6292 10.7338V10.9074C11.6292 8.98622 12.9517 8.19918 14.5823 9.14781Z" fill="white"/>
<rect x="1" y="1" width="156" height="46" stroke="white" stroke-width="2"/>
<defs>
<linearGradient id="paint0_linear_1787_2311" x1="25.4078" y1="10.4488" x2="2.18993" y2="16.4577" gradientUnits="userSpaceOnUse">
<stop stop-color="#00A0FF"/>
<stop offset="0.00657" stop-color="#00A1FF"/>
<stop offset="0.2601" stop-color="#00BEFF"/>
<stop offset="0.5122" stop-color="#00D2FF"/>
<stop offset="0.7604" stop-color="#00DFFF"/>
<stop offset="1" stop-color="#00E3FF"/>
</linearGradient>
<linearGradient id="paint1_linear_1787_2311" x1="39.4365" y1="23.999" x2="11.2332" y2="23.999" gradientUnits="userSpaceOnUse">
<stop stop-color="#FFE000"/>
<stop offset="0.4087" stop-color="#FFBD00"/>
<stop offset="0.7754" stop-color="#FFA500"/>
<stop offset="1" stop-color="#FF9C00"/>
</linearGradient>
<linearGradient id="paint2_linear_1787_2311" x1="28.9364" y1="26.7568" x2="9.55696" y2="58.4382" gradientUnits="userSpaceOnUse">
<stop stop-color="#FF3A44"/>
<stop offset="1" stop-color="#C31162"/>
</linearGradient>
<linearGradient id="paint3_linear_1787_2311" x1="8.50198" y1="0.213933" x2="17.1481" y2="14.3637" gradientUnits="userSpaceOnUse">
<stop stop-color="#32A071"/>
<stop offset="0.0685" stop-color="#2DA771"/>
<stop offset="0.4762" stop-color="#15CF74"/>
<stop offset="0.8009" stop-color="#06E775"/>
<stop offset="1" stop-color="#00F076"/>
</linearGradient>
</defs>
</svg>
