<svg width="158" height="48" viewBox="0 0 158 48" fill="none" xmlns="http://www.w3.org/2000/svg">
<rect width="158" height="48" fill="#E5E5E5"/>
<g clip-path="url(#clip0_0_1)">
<rect width="1440" height="1484" transform="translate(-699 -1092)" fill="white"/>
<mask id="mask0_0_1" style="mask-type:alpha" maskUnits="userSpaceOnUse" x="-699" y="-204" width="1464" height="308">
<rect x="-699" y="-204" width="1464" height="308" fill="#EEFDFC"/>
</mask>
<g mask="url(#mask0_0_1)">
<rect x="-699" y="-204" width="1464" height="308" fill="#212867"/>
<rect x="-699" y="-204" width="1464" height="308" fill="#212867"/>
</g>
<g clip-path="url(#clip1_0_1)">
<path d="M155.702 42.5438C155.702 43.1441 155.587 43.7386 155.362 44.2932C155.137 44.8478 154.807 45.3517 154.391 45.7759C153.975 46.2002 153.481 46.5365 152.938 46.7656C152.394 46.9948 151.812 47.1123 151.224 47.1114H4.68929C2.21614 47.114 0.209021 45.0694 0.205811 42.544V6.12063C0.209021 3.59436 2.21526 1.54795 4.68929 1.54736H151.224C152.411 1.54743 153.55 2.02928 154.39 2.8869C155.229 3.74453 155.701 4.90772 155.701 6.12063L155.703 42.544L155.702 42.5438Z" fill="white"/>
<path d="M151.224 48.1739H4.68919C1.64291 48.1733 -0.827904 45.6545 -0.83374 42.5438V6.12211C-0.829363 3.00958 1.64145 0.488384 4.68919 0.486H151.223C154.271 0.489875 156.741 3.01048 156.746 6.12211V42.5438C156.749 45.6494 154.267 48.1739 151.225 48.1739H151.224Z" fill="#A6A6A6"/>
<path d="M155.702 42.5438C155.702 43.1441 155.587 43.7386 155.362 44.2932C155.137 44.8478 154.807 45.3517 154.391 45.7759C153.975 46.2002 153.481 46.5365 152.938 46.7656C152.394 46.9948 151.812 47.1123 151.224 47.1114H4.68929C2.21614 47.114 0.209021 45.0694 0.205811 42.544V6.12063C0.209021 3.59436 2.21526 1.54795 4.68929 1.54736H151.224C152.411 1.54743 153.55 2.02928 154.39 2.8869C155.229 3.74453 155.701 4.90772 155.701 6.12063L155.703 42.544L155.702 42.5438Z" fill="black"/>
<path d="M34.3525 24.079C34.3186 20.2353 37.4347 18.3654 37.5771 18.2783C35.8125 15.6513 33.0773 15.2925 32.116 15.2639C29.8188 15.0168 27.5905 16.6674 26.42 16.6674C25.2265 16.6674 23.4245 15.2874 21.4825 15.3283C18.9831 15.3676 16.6447 16.8453 15.3625 19.1394C12.716 23.8179 14.6898 30.6927 17.2252 34.4741C18.4937 36.3273 19.9755 38.394 21.9155 38.3213C23.8135 38.2426 24.5223 37.0871 26.8125 37.0871C29.0817 37.0871 29.7476 38.321 31.7258 38.2748C33.7627 38.2426 35.045 36.4144 36.2691 34.5456C37.7347 32.4241 38.3235 30.3327 38.3469 30.2251C38.3002 30.2084 34.3922 28.6844 34.3525 24.079ZM30.6152 12.7761C31.636 11.4727 32.3343 9.6993 32.1405 7.89997C30.663 7.96673 28.8156 8.94314 27.7516 10.2182C26.8102 11.3415 25.9695 13.1829 26.1866 14.9143C27.8461 15.0406 29.5501 14.0595 30.6152 12.7761Z" fill="white"/>
<path d="M151.224 0.486H72.7356L103.478 48.1739H151.224C154.271 48.1712 156.742 45.6515 156.747 42.5405V6.12182C156.742 3.01048 154.272 0.489279 151.224 0.486Z" fill="url(#paint0_linear_0_1)"/>
<path d="M61.8415 38.0551H59.1892L57.7362 33.3936H52.6863L51.3022 38.0551H48.7202L53.7246 22.1852H56.8149L61.8415 38.0554V38.0551ZM57.2985 31.4381L55.9844 27.2941C55.8455 26.8708 55.5838 25.8736 55.2009 24.3043H55.1542C54.9998 24.9794 54.7535 25.9764 54.4159 27.2938L53.1243 31.4381H57.2985ZM74.6861 32.1928C74.6861 34.1391 74.1687 35.6773 73.1328 36.8066C72.2054 37.8119 71.0527 38.3141 69.6779 38.3141C68.1938 38.3141 67.1263 37.7738 66.4779 36.691V42.6955H63.9881V30.3732C63.9881 29.1506 63.9566 27.8973 63.8959 26.6118H66.0857L66.2246 28.4257H66.2713C67.1018 27.0592 68.3618 26.3758 70.0532 26.3758C71.3752 26.3758 72.4788 26.9087 73.3616 27.9763C74.2434 29.0457 74.6861 30.4507 74.6861 32.1928ZM72.1493 32.2858C72.1493 31.172 71.9042 30.2537 71.411 29.53C70.8729 28.7774 70.1498 28.4004 69.2437 28.4004C68.6292 28.4004 68.0709 28.6105 67.5725 29.0242C67.0726 29.4415 66.7455 29.9869 66.5926 30.6617C66.5242 30.9142 66.4853 31.174 66.4767 31.4357V33.3448C66.4767 34.1763 66.7268 34.8785 67.2267 35.4532C67.7266 36.0254 68.3759 36.313 69.1746 36.313C70.1125 36.313 70.8426 35.9423 71.3646 35.2064C71.8876 34.4681 72.1493 33.495 72.1493 32.2858ZM87.5763 32.1928C87.5763 34.1391 87.0589 35.6773 86.0229 36.8066C85.0944 37.8119 83.9428 38.3141 82.5669 38.3141C81.0827 38.3141 80.0153 37.7738 79.3669 36.691V42.6955H76.8771V30.3732C76.8771 29.1506 76.8456 27.8973 76.7849 26.6118H78.9747L79.1136 28.4257H79.1603C79.9893 27.0592 81.2497 26.3758 82.9419 26.3758C84.2627 26.3758 85.3663 26.9087 86.2517 27.9763C87.1324 29.0457 87.5763 30.4507 87.5763 32.1928ZM85.0383 32.2858C85.0383 31.172 84.7917 30.2537 84.2989 29.53C83.7605 28.7774 83.04 28.4004 82.1336 28.4004C81.5193 28.4004 80.9611 28.6105 80.46 29.0242C79.9601 29.4415 79.6342 29.9869 79.4815 30.6617C79.4057 30.9765 79.3648 31.2328 79.3648 31.4357V33.3448C79.3648 34.1763 79.6158 34.8785 80.1133 35.4532C80.6132 36.0245 81.2625 36.313 82.0635 36.313C83.0026 36.313 83.7327 35.9423 84.2533 35.2064C84.7766 34.4681 85.0383 33.495 85.0383 32.2858ZM101.988 33.6038C101.988 34.9548 101.525 36.0531 100.606 36.9011C99.595 37.8262 98.1829 38.29 96.3728 38.29C94.7004 38.29 93.3595 37.9612 92.3481 37.3017L92.9238 35.1825C94.0158 35.8433 95.2155 36.1721 96.521 36.1721C97.4601 36.1721 98.1902 35.9554 98.7108 35.5247C99.2332 35.0931 99.497 34.5158 99.497 33.7957C99.497 33.1504 99.2784 32.6104 98.8497 32.1701C98.419 31.7314 97.7064 31.3222 96.7055 30.9466C93.9843 29.9103 92.6227 28.3947 92.6227 26.4008C92.6227 25.0983 93.1039 24.0325 94.0639 23.1989C95.024 22.3664 96.2969 21.95 97.8806 21.95C99.2948 21.95 100.473 22.2019 101.409 22.7041L100.784 24.7764C99.9032 24.29 98.9093 24.0468 97.7975 24.0468C96.9191 24.0468 96.2304 24.2674 95.7372 24.7061C95.3228 25.0986 95.1127 25.5767 95.1127 26.1445C95.1127 26.7704 95.352 27.2905 95.8286 27.6982C96.2421 28.0738 96.9964 28.483 98.0872 28.9217C99.4255 29.4728 100.409 30.1142 101.038 30.8513C101.673 31.5883 101.988 32.5078 101.988 33.6038ZM110.241 28.5199H107.497V34.0759C107.497 35.4889 107.98 36.1938 108.95 36.1938C109.395 36.1938 109.764 36.1557 110.056 36.0758L110.125 38.0065C109.634 38.1937 108.988 38.2879 108.188 38.2879C107.205 38.2879 106.436 37.9815 105.882 37.3684C105.329 36.7553 105.051 35.7289 105.051 34.2836V28.5149H103.416V26.607H105.051V24.5118L107.497 23.758V26.6073H110.241V28.5199ZM122.6 32.2396C122.6 33.9981 122.107 35.4424 121.124 36.5717C120.095 37.7344 118.726 38.3141 117.02 38.3141C115.373 38.3141 114.064 37.7571 113.088 36.6445C112.111 35.5298 111.623 34.1247 111.623 32.43C111.623 30.6566 112.128 29.2043 113.133 28.0749C114.141 26.9444 115.498 26.379 117.204 26.379C118.849 26.379 120.17 26.9373 121.17 28.0511C122.125 29.1315 122.6 30.527 122.6 32.2393V32.2396ZM120.019 32.2977C120.019 31.2495 119.798 30.3505 119.352 29.598C118.83 28.6892 118.083 28.235 117.115 28.235C116.117 28.235 115.352 28.6892 114.831 29.598C114.385 30.3505 114.163 31.265 114.163 32.3454C114.163 33.3948 114.385 34.2964 114.831 35.0466C115.37 35.9554 116.121 36.4096 117.094 36.4096C118.045 36.4096 118.792 35.9458 119.331 35.0237C119.789 34.2535 120.019 33.3486 120.019 32.2977ZM130.697 28.8478C130.438 28.8001 130.175 28.7765 129.912 28.7774C129.037 28.7774 128.359 29.1136 127.883 29.7911C127.469 30.3872 127.261 31.1413 127.261 32.0509V38.0554H124.771V30.2155C124.774 29.0144 124.749 27.8133 124.699 26.613H126.868L126.959 28.8025H127.028C127.292 28.0499 127.705 27.4431 128.273 26.9886C128.792 26.5916 129.424 26.3767 130.072 26.3758C130.303 26.3758 130.51 26.3925 130.695 26.4223L130.697 28.8478ZM141.833 31.7922C141.839 32.1787 141.809 32.5649 141.742 32.9454H134.272C134.3 34.0759 134.662 34.9417 135.356 35.5378C135.986 36.0698 136.8 36.3369 137.799 36.3369C138.905 36.3369 139.914 36.158 140.822 35.7968L141.212 37.5604C140.152 38.0328 138.899 38.2676 137.455 38.2676C135.717 38.2676 134.353 37.7452 133.36 36.7029C132.37 35.6597 131.873 34.2571 131.873 32.5004C131.873 30.7762 132.335 29.3393 133.258 28.1933C134.226 26.9695 135.532 26.3579 137.177 26.3579C138.792 26.3579 140.015 26.9695 140.845 28.1933C141.503 29.1625 141.833 30.3649 141.833 31.7922H141.833ZM139.459 31.1326C139.476 30.378 139.313 29.7279 138.975 29.178C138.544 28.4699 137.881 28.117 136.992 28.117C136.178 28.117 135.515 28.4615 135.01 29.153C134.596 29.7029 134.349 30.3637 134.273 31.1302L139.459 31.1326H139.459ZM51.9681 16.5744C51.2754 16.5744 50.6763 16.5398 50.1776 16.4814V8.80873C50.875 8.69846 51.58 8.64451 52.2856 8.6466C55.1414 8.6466 56.4563 10.0811 56.4563 12.4196C56.4563 15.1169 54.9029 16.5744 51.9681 16.5744ZM52.386 9.63016C52.0008 9.63016 51.6725 9.654 51.4006 9.71153V15.5441C51.5476 15.5679 51.8301 15.5786 52.2273 15.5786C54.0984 15.5786 55.1635 14.4907 55.1635 12.4542C55.1635 10.6379 54.2 9.63016 52.386 9.63016ZM60.5546 16.6328C58.9452 16.6328 57.902 15.4058 57.902 13.7397C57.902 12.0035 58.9671 10.7654 60.6456 10.7654C62.2316 10.7654 63.2979 11.9344 63.2979 13.6479C63.2979 15.4058 62.199 16.6328 60.5546 16.6328ZM60.6013 11.6792C59.7171 11.6792 59.1506 12.5233 59.1506 13.7039C59.1506 14.8618 59.7287 15.7062 60.5893 15.7062C61.4502 15.7062 62.0282 14.8034 62.0282 13.6801C62.0282 12.5355 61.4621 11.6789 60.6013 11.6789V11.6792ZM72.4753 10.8814L70.7524 16.5053H69.6301L68.9166 14.063C68.7391 13.4656 68.5914 12.8594 68.4739 12.2467H68.4506C68.3607 12.8595 68.1903 13.4738 68.009 14.063L67.25 16.5053H66.116L64.495 10.8811H65.7527L66.3763 13.5549C66.5237 14.1918 66.6474 14.7927 66.7501 15.3605H66.7735C66.8634 14.8869 67.0104 14.2955 67.2267 13.5668L68.009 10.8826H69.0065L69.7553 13.5096C69.9289 14.1201 70.0765 14.7381 70.1977 15.3616H70.2304C70.31 14.7834 70.4346 14.1692 70.6042 13.5096L71.2733 10.8826L72.4753 10.8814ZM78.8168 16.5053H77.5929V13.2759C77.5929 12.2813 77.2194 11.7827 76.4822 11.7827C75.7571 11.7827 75.2584 12.4196 75.2584 13.1603V16.5053H74.0342V12.4885C74.0342 11.9913 74.0225 11.4581 73.9887 10.8799H75.0655L75.1227 11.7478H75.1568C75.486 11.1469 76.154 10.7651 76.9028 10.7651C78.0589 10.7651 78.8179 11.6682 78.8179 13.1373L78.8168 16.505V16.5053ZM82.1922 16.5053H80.9669V8.30056H82.1922V16.5053ZM86.6547 16.6328C85.0465 16.6328 84.0021 15.4058 84.0021 13.7397C84.0021 12.0035 85.0672 10.7654 86.7446 10.7654C88.3318 10.7654 89.3969 11.9344 89.3969 13.6479C89.3981 15.4058 88.2979 16.6328 86.6547 16.6328ZM86.7002 11.6792C85.816 11.6792 85.2499 12.5233 85.2499 13.7039C85.2499 14.8618 85.8289 15.7062 86.6874 15.7062C87.5491 15.7062 88.126 14.8034 88.126 13.6801C88.1275 12.5355 87.562 11.6789 86.7002 11.6789V11.6792ZM94.2227 16.5053L94.134 15.8576H94.1013C93.7275 16.3789 93.1821 16.6325 92.4905 16.6325C91.5038 16.6325 90.8029 15.9267 90.8029 14.9775C90.8029 13.5894 91.9815 12.8714 94.0216 12.8714V12.7677C94.0216 12.0274 93.6376 11.6563 92.8783 11.6563C92.3355 11.6563 91.8587 11.7958 91.4396 12.0736L91.1907 11.2521C91.6999 10.9279 92.3352 10.7654 93.0817 10.7654C94.5203 10.7654 95.247 11.5407 95.247 13.0923V15.1637C95.247 15.7312 95.2715 16.1711 95.3263 16.5065L94.2227 16.5053ZM94.0543 13.7039C92.695 13.7039 92.0131 14.0404 92.0131 14.838C92.0131 15.4281 92.3644 15.7169 92.8526 15.7169C93.4751 15.7169 94.0543 15.2317 94.0543 14.5721V13.7039ZM101.19 16.5053L101.133 15.6022H101.099C100.748 16.2847 100.157 16.6328 99.331 16.6328C98.0032 16.6328 97.0198 15.4403 97.0198 13.7626C97.0198 12.0035 98.0394 10.7642 99.4313 10.7642C100.168 10.7642 100.691 11.0185 100.985 11.5287H101.009V8.30086H102.235V14.9891C102.235 15.533 102.247 16.0421 102.28 16.505H101.19V16.5053ZM101.009 13.196C101.009 12.4089 100.499 11.7374 99.7199 11.7374C98.8124 11.7374 98.2579 12.5591 98.2579 13.7158C98.2579 14.8499 98.8334 15.6263 99.6954 15.6263C100.465 15.6263 101.009 14.9429 101.009 14.1331V13.196H101.009ZM110.002 16.6325C108.394 16.6325 107.351 15.4058 107.351 13.7397C107.351 12.0035 108.416 10.7654 110.093 10.7654C111.681 10.7654 112.746 11.9344 112.746 13.6479C112.747 15.4058 111.648 16.6328 110.002 16.6328V16.6325ZM110.048 11.6789C109.165 11.6789 108.598 12.5233 108.598 13.7039C108.598 14.8618 109.176 15.7062 110.036 15.7062C110.898 15.7062 111.475 14.8034 111.475 13.6801C111.477 12.5355 110.911 11.6789 110.048 11.6789ZM119.328 16.5053H118.103V13.2759C118.103 12.2813 117.729 11.7827 116.992 11.7827C116.267 11.7827 115.769 12.4196 115.769 13.1603V16.5053H114.544V12.4885C114.544 11.9913 114.532 11.4581 114.498 10.8799H115.575L115.632 11.7478H115.666C115.995 11.1469 116.664 10.7642 117.411 10.7642C118.568 10.7642 119.328 11.6667 119.328 13.1361V16.505V16.5053ZM127.563 11.8184H126.216V14.5495C126.216 15.2448 126.452 15.5917 126.928 15.5917C127.144 15.5917 127.326 15.5679 127.471 15.5333L127.505 16.4826C127.268 16.5756 126.951 16.6221 126.556 16.6221C125.591 16.6221 125.014 16.0782 125.014 14.6544V11.8184H124.211V10.8814H125.014V9.85071L126.216 9.47964V10.8799H127.563V11.8181L127.563 11.8184ZM134.042 16.5053H132.819V13.2997C132.819 12.2932 132.447 11.7839 131.709 11.7839C131.075 11.7839 130.484 12.2241 130.484 13.115V16.5053H129.261V8.30056H130.484V11.6789H130.508C130.893 11.0662 131.452 10.7642 132.164 10.7642C133.33 10.7642 134.042 11.6897 134.042 13.1603V16.5053ZM140.681 13.9936H137.007C137.031 15.0585 137.721 15.6597 138.743 15.6597C139.286 15.6597 139.786 15.5667 140.227 15.3938L140.418 16.2621C139.897 16.4933 139.284 16.609 138.57 16.609C136.848 16.609 135.828 15.4973 135.828 13.7745C135.828 12.05 136.872 10.7535 138.432 10.7535C139.84 10.7535 140.723 11.8184 140.723 13.427C140.731 13.6169 140.716 13.8071 140.681 13.9936ZM139.558 13.103C139.558 12.2348 139.129 11.6217 138.347 11.6217C137.644 11.6217 137.088 12.2467 137.009 13.103H139.558Z" fill="white"/>
</g>
<rect x="1" y="1" width="156" height="46" stroke="white" stroke-width="2"/>
</g>
<defs>
<linearGradient id="paint0_linear_0_1" x1="114.74" y1="48.3008" x2="114.74" y2="-123.685" gradientUnits="userSpaceOnUse">
<stop stop-color="#1A1A1A" stop-opacity="0.1"/>
<stop offset="0.123" stop-color="#212121" stop-opacity="0.151"/>
<stop offset="0.308" stop-color="#353535" stop-opacity="0.227"/>
<stop offset="0.532" stop-color="#575757" stop-opacity="0.318"/>
<stop offset="0.783" stop-color="#858585" stop-opacity="0.421"/>
<stop offset="1" stop-color="#B3B3B3" stop-opacity="0.51"/>
</linearGradient>
<clipPath id="clip0_0_1">
<rect width="1440" height="1484" fill="white" transform="translate(-699 -1092)"/>
</clipPath>
<clipPath id="clip1_0_1">
<rect width="158" height="48" fill="white"/>
</clipPath>
</defs>
</svg>
